ISO-10303-21;
HEADER;
FILE_DESCRIPTION(('FreeCAD Model'),'2;1');
FILE_NAME('Open CASCADE Shape Model','2026-05-28T22:27:50',(''),(''),
  'Open CASCADE STEP processor 7.8','FreeCAD','Unknown');
FILE_SCHEMA(('AUTOMOTIVE_DESIGN { 1 0 10303 214 1 1 1 1 }'));
ENDSEC;
DATA;
#1 = APPLICATION_PROTOCOL_DEFINITION('international standard',
  'automotive_design',2000,#2);
#2 = APPLICATION_CONTEXT(
  'core data for automotive mechanical design processes');
#3 = SHAPE_DEFINITION_REPRESENTATION(#4,#10);
#4 = PRODUCT_DEFINITION_SHAPE('','',#5);
#5 = PRODUCT_DEFINITION('design','',#6,#9);
#6 = PRODUCT_DEFINITION_FORMATION('','',#7);
#7 = PRODUCT('stepEngine','stepEngine','',(#8));
#8 = PRODUCT_CONTEXT('',#2,'mechanical');
#9 = PRODUCT_DEFINITION_CONTEXT('part definition',#2,'design');
#10 = ADVANCED_BREP_SHAPE_REPRESENTATION('',(#11,#15),#1001);
#11 = AXIS2_PLACEMENT_3D('',#12,#13,#14);
#12 = CARTESIAN_POINT('',(0.,0.,0.));
#13 = DIRECTION('',(0.,0.,1.));
#14 = DIRECTION('',(1.,0.,-0.));
#15 = MANIFOLD_SOLID_BREP('',#16);
#16 = CLOSED_SHELL('',(#17,#180,#211,#236,#359,#383,#407,#432,#469,#486,
    #512,#536,#572,#589,#606,#631,#648,#673,#690,#702,#714,#731,#748,
    #773,#791,#802,#811,#831,#924,#940,#957,#974,#991));
#17 = ADVANCED_FACE('',(#18),#175,.T.);
#18 = FACE_BOUND('',#19,.F.);
#19 = EDGE_LOOP('',(#20,#30,#39,#47,#56,#64,#71,#72,#81,#89,#98,#106,
    #115,#123,#132,#140,#154,#163));
#20 = ORIENTED_EDGE('',*,*,#21,.F.);
#21 = EDGE_CURVE('',#22,#24,#26,.T.);
#22 = VERTEX_POINT('',#23);
#23 = CARTESIAN_POINT('',(7.5,-11.82159041753,9.65));
#24 = VERTEX_POINT('',#25);
#25 = CARTESIAN_POINT('',(7.5,-11.82159041753,-6.1));
#26 = LINE('',#27,#28);
#27 = CARTESIAN_POINT('',(7.5,-11.82159041753,-9.65));
#28 = VECTOR('',#29,1.);
#29 = DIRECTION('',(-0.,-0.,-1.));
#30 = ORIENTED_EDGE('',*,*,#31,.T.);
#31 = EDGE_CURVE('',#22,#32,#34,.T.);
#32 = VERTEX_POINT('',#33);
#33 = CARTESIAN_POINT('',(13.555441711726,-3.5,9.65));
#34 = CIRCLE('',#35,14.);
#35 = AXIS2_PLACEMENT_3D('',#36,#37,#38);
#36 = CARTESIAN_POINT('',(0.,0.,9.65));
#37 = DIRECTION('',(0.,0.,1.));
#38 = DIRECTION('',(1.,0.,0.));
#39 = ORIENTED_EDGE('',*,*,#40,.T.);
#40 = EDGE_CURVE('',#32,#41,#43,.T.);
#41 = VERTEX_POINT('',#42);
#42 = CARTESIAN_POINT('',(13.555441711726,-3.5,8.65));
#43 = LINE('',#44,#45);
#44 = CARTESIAN_POINT('',(13.555441711726,-3.5,-9.65));
#45 = VECTOR('',#46,1.);
#46 = DIRECTION('',(-0.,-0.,-1.));
#47 = ORIENTED_EDGE('',*,*,#48,.F.);
#48 = EDGE_CURVE('',#49,#41,#51,.T.);
#49 = VERTEX_POINT('',#50);
#50 = CARTESIAN_POINT('',(14.,0.,8.65));
#51 = CIRCLE('',#52,14.);
#52 = AXIS2_PLACEMENT_3D('',#53,#54,#55);
#53 = CARTESIAN_POINT('',(0.,0.,8.65));
#54 = DIRECTION('',(0.,0.,-1.));
#55 = DIRECTION('',(1.,0.,0.));
#56 = ORIENTED_EDGE('',*,*,#57,.F.);
#57 = EDGE_CURVE('',#58,#49,#60,.T.);
#58 = VERTEX_POINT('',#59);
#59 = CARTESIAN_POINT('',(14.,0.,-9.15));
#60 = LINE('',#61,#62);
#61 = CARTESIAN_POINT('',(14.,0.,-9.65));
#62 = VECTOR('',#63,1.);
#63 = DIRECTION('',(0.,0.,1.));
#64 = ORIENTED_EDGE('',*,*,#65,.F.);
#65 = EDGE_CURVE('',#58,#58,#66,.T.);
#66 = CIRCLE('',#67,14.);
#67 = AXIS2_PLACEMENT_3D('',#68,#69,#70);
#68 = CARTESIAN_POINT('',(0.,0.,-9.15));
#69 = DIRECTION('',(0.,0.,1.));
#70 = DIRECTION('',(1.,0.,0.));
#71 = ORIENTED_EDGE('',*,*,#57,.T.);
#72 = ORIENTED_EDGE('',*,*,#73,.F.);
#73 = EDGE_CURVE('',#74,#49,#76,.T.);
#74 = VERTEX_POINT('',#75);
#75 = CARTESIAN_POINT('',(13.555441711726,3.5,8.65));
#76 = CIRCLE('',#77,14.);
#77 = AXIS2_PLACEMENT_3D('',#78,#79,#80);
#78 = CARTESIAN_POINT('',(0.,0.,8.65));
#79 = DIRECTION('',(0.,0.,-1.));
#80 = DIRECTION('',(1.,0.,0.));
#81 = ORIENTED_EDGE('',*,*,#82,.F.);
#82 = EDGE_CURVE('',#83,#74,#85,.T.);
#83 = VERTEX_POINT('',#84);
#84 = CARTESIAN_POINT('',(13.555441711726,3.5,9.65));
#85 = LINE('',#86,#87);
#86 = CARTESIAN_POINT('',(13.555441711726,3.5,-9.65));
#87 = VECTOR('',#88,1.);
#88 = DIRECTION('',(-0.,-0.,-1.));
#89 = ORIENTED_EDGE('',*,*,#90,.T.);
#90 = EDGE_CURVE('',#83,#91,#93,.T.);
#91 = VERTEX_POINT('',#92);
#92 = CARTESIAN_POINT('',(-13.55544171172,3.5,9.65));
#93 = CIRCLE('',#94,14.);
#94 = AXIS2_PLACEMENT_3D('',#95,#96,#97);
#95 = CARTESIAN_POINT('',(0.,0.,9.65));
#96 = DIRECTION('',(0.,0.,1.));
#97 = DIRECTION('',(1.,0.,0.));
#98 = ORIENTED_EDGE('',*,*,#99,.T.);
#99 = EDGE_CURVE('',#91,#100,#102,.T.);
#100 = VERTEX_POINT('',#101);
#101 = CARTESIAN_POINT('',(-13.55544171172,3.5,8.65));
#102 = LINE('',#103,#104);
#103 = CARTESIAN_POINT('',(-13.55544171172,3.5,-9.65));
#104 = VECTOR('',#105,1.);
#105 = DIRECTION('',(-0.,-0.,-1.));
#106 = ORIENTED_EDGE('',*,*,#107,.F.);
#107 = EDGE_CURVE('',#108,#100,#110,.T.);
#108 = VERTEX_POINT('',#109);
#109 = CARTESIAN_POINT('',(-13.55544171172,-3.5,8.65));
#110 = CIRCLE('',#111,14.);
#111 = AXIS2_PLACEMENT_3D('',#112,#113,#114);
#112 = CARTESIAN_POINT('',(0.,0.,8.65));
#113 = DIRECTION('',(0.,0.,-1.));
#114 = DIRECTION('',(1.,0.,0.));
#115 = ORIENTED_EDGE('',*,*,#116,.F.);
#116 = EDGE_CURVE('',#117,#108,#119,.T.);
#117 = VERTEX_POINT('',#118);
#118 = CARTESIAN_POINT('',(-13.55544171172,-3.5,9.65));
#119 = LINE('',#120,#121);
#120 = CARTESIAN_POINT('',(-13.55544171172,-3.5,-9.65));
#121 = VECTOR('',#122,1.);
#122 = DIRECTION('',(-0.,-0.,-1.));
#123 = ORIENTED_EDGE('',*,*,#124,.T.);
#124 = EDGE_CURVE('',#117,#125,#127,.T.);
#125 = VERTEX_POINT('',#126);
#126 = CARTESIAN_POINT('',(-7.5,-11.82159041753,9.65));
#127 = CIRCLE('',#128,14.);
#128 = AXIS2_PLACEMENT_3D('',#129,#130,#131);
#129 = CARTESIAN_POINT('',(0.,0.,9.65));
#130 = DIRECTION('',(0.,0.,1.));
#131 = DIRECTION('',(1.,0.,0.));
#132 = ORIENTED_EDGE('',*,*,#133,.T.);
#133 = EDGE_CURVE('',#125,#134,#136,.T.);
#134 = VERTEX_POINT('',#135);
#135 = CARTESIAN_POINT('',(-7.5,-11.82159041753,-6.1));
#136 = LINE('',#137,#138);
#137 = CARTESIAN_POINT('',(-7.5,-11.82159041753,-9.65));
#138 = VECTOR('',#139,1.);
#139 = DIRECTION('',(-0.,-0.,-1.));
#140 = ORIENTED_EDGE('',*,*,#141,.F.);
#141 = EDGE_CURVE('',#142,#134,#144,.T.);
#142 = VERTEX_POINT('',#143);
#143 = CARTESIAN_POINT('',(-7.25,-11.976539567,-6.35));
#144 = B_SPLINE_CURVE_WITH_KNOTS('',8,(#145,#146,#147,#148,#149,#150,
    #151,#152,#153),.UNSPECIFIED.,.F.,.F.,(9,9),(0.,1.),
  .PIECEWISE_BEZIER_KNOTS.);
#145 = CARTESIAN_POINT('',(-7.25,-11.976539567,-6.35));
#146 = CARTESIAN_POINT('',(-7.299275302663,-11.94671075524,-6.35));
#147 = CARTESIAN_POINT('',(-7.348576029628,-11.916549931,-6.338900467602
    ));
#148 = CARTESIAN_POINT('',(-7.394856816411,-11.88789704947,
    -6.316680061215));
#149 = CARTESIAN_POINT('',(-7.435170685197,-11.86264110486,
    -6.284406473134));
#150 = CARTESIAN_POINT('',(-7.467149837615,-11.84243151133,
    -6.243992292672));
#151 = CARTESIAN_POINT('',(-7.489063869296,-11.82852867533,
    -6.197874549726));
#152 = CARTESIAN_POINT('',(-7.5,-11.82159041753,-6.148911136613));
#153 = CARTESIAN_POINT('',(-7.5,-11.82159041753,-6.1));
#154 = ORIENTED_EDGE('',*,*,#155,.F.);
#155 = EDGE_CURVE('',#156,#142,#158,.T.);
#156 = VERTEX_POINT('',#157);
#157 = CARTESIAN_POINT('',(7.25,-11.976539567,-6.35));
#158 = CIRCLE('',#159,14.);
#159 = AXIS2_PLACEMENT_3D('',#160,#161,#162);
#160 = CARTESIAN_POINT('',(0.,0.,-6.35));
#161 = DIRECTION('',(0.,0.,-1.));
#162 = DIRECTION('',(1.,0.,0.));
#163 = ORIENTED_EDGE('',*,*,#164,.F.);
#164 = EDGE_CURVE('',#24,#156,#165,.T.);
#165 = B_SPLINE_CURVE_WITH_KNOTS('',8,(#166,#167,#168,#169,#170,#171,
    #172,#173,#174),.UNSPECIFIED.,.F.,.F.,(9,9),(0.,1.),
  .PIECEWISE_BEZIER_KNOTS.);
#166 = CARTESIAN_POINT('',(7.5,-11.82159041753,-6.1));
#167 = CARTESIAN_POINT('',(7.5,-11.82159041753,-6.148911136253));
#168 = CARTESIAN_POINT('',(7.489063869442,-11.82852867523,
    -6.197874549489));
#169 = CARTESIAN_POINT('',(7.467149837793,-11.84243151122,
    -6.243992292249));
#170 = CARTESIAN_POINT('',(7.435170685504,-11.86264110466,
    -6.284406472733));
#171 = CARTESIAN_POINT('',(7.394856817006,-11.8878970491,-6.316680060882
    ));
#172 = CARTESIAN_POINT('',(7.348576030048,-11.91654993074,
    -6.338900467472));
#173 = CARTESIAN_POINT('',(7.299275302983,-11.94671075504,-6.35));
#174 = CARTESIAN_POINT('',(7.25,-11.976539567,-6.35));
#175 = CYLINDRICAL_SURFACE('',#176,14.);
#176 = AXIS2_PLACEMENT_3D('',#177,#178,#179);
#177 = CARTESIAN_POINT('',(0.,0.,-9.65));
#178 = DIRECTION('',(-0.,-0.,-1.));
#179 = DIRECTION('',(1.,0.,0.));
#180 = ADVANCED_FACE('',(#181),#206,.T.);
#181 = FACE_BOUND('',#182,.T.);
#182 = EDGE_LOOP('',(#183,#191,#199,#205));
#183 = ORIENTED_EDGE('',*,*,#184,.F.);
#184 = EDGE_CURVE('',#185,#22,#187,.T.);
#185 = VERTEX_POINT('',#186);
#186 = CARTESIAN_POINT('',(7.5,-16.75,9.65));
#187 = LINE('',#188,#189);
#188 = CARTESIAN_POINT('',(7.5,-17.,9.65));
#189 = VECTOR('',#190,1.);
#190 = DIRECTION('',(0.,1.,0.));
#191 = ORIENTED_EDGE('',*,*,#192,.T.);
#192 = EDGE_CURVE('',#185,#193,#195,.T.);
#193 = VERTEX_POINT('',#194);
#194 = CARTESIAN_POINT('',(7.5,-16.75,-6.1));
#195 = LINE('',#196,#197);
#196 = CARTESIAN_POINT('',(7.5,-16.75,9.65));
#197 = VECTOR('',#198,1.);
#198 = DIRECTION('',(-0.,-0.,-1.));
#199 = ORIENTED_EDGE('',*,*,#200,.T.);
#200 = EDGE_CURVE('',#193,#24,#201,.T.);
#201 = LINE('',#202,#203);
#202 = CARTESIAN_POINT('',(7.5,-17.,-6.1));
#203 = VECTOR('',#204,1.);
#204 = DIRECTION('',(0.,1.,0.));
#205 = ORIENTED_EDGE('',*,*,#21,.F.);
#206 = PLANE('',#207);
#207 = AXIS2_PLACEMENT_3D('',#208,#209,#210);
#208 = CARTESIAN_POINT('',(7.5,-17.,9.65));
#209 = DIRECTION('',(1.,0.,0.));
#210 = DIRECTION('',(0.,1.,0.));
#211 = ADVANCED_FACE('',(#212),#231,.T.);
#212 = FACE_BOUND('',#213,.T.);
#213 = EDGE_LOOP('',(#214,#223,#229,#230));
#214 = ORIENTED_EDGE('',*,*,#215,.T.);
#215 = EDGE_CURVE('',#193,#216,#218,.T.);
#216 = VERTEX_POINT('',#217);
#217 = CARTESIAN_POINT('',(7.25,-16.75,-6.35));
#218 = CIRCLE('',#219,0.25);
#219 = AXIS2_PLACEMENT_3D('',#220,#221,#222);
#220 = CARTESIAN_POINT('',(7.25,-16.75,-6.1));
#221 = DIRECTION('',(0.,1.,-6.E-17));
#222 = DIRECTION('',(0.,-6.E-17,-1.));
#223 = ORIENTED_EDGE('',*,*,#224,.T.);
#224 = EDGE_CURVE('',#216,#156,#225,.T.);
#225 = LINE('',#226,#227);
#226 = CARTESIAN_POINT('',(7.25,-17.,-6.35));
#227 = VECTOR('',#228,1.);
#228 = DIRECTION('',(0.,1.,0.));
#229 = ORIENTED_EDGE('',*,*,#164,.F.);
#230 = ORIENTED_EDGE('',*,*,#200,.F.);
#231 = CYLINDRICAL_SURFACE('',#232,0.25);
#232 = AXIS2_PLACEMENT_3D('',#233,#234,#235);
#233 = CARTESIAN_POINT('',(7.25,-17.,-6.1));
#234 = DIRECTION('',(0.,1.,0.));
#235 = DIRECTION('',(1.,0.,0.));
#236 = ADVANCED_FACE('',(#237,#321,#332,#343),#354,.T.);
#237 = FACE_BOUND('',#238,.T.);
#238 = EDGE_LOOP('',(#239,#247,#256,#264,#271,#272,#273,#281,#290,#296,
    #297,#305,#314,#320));
#239 = ORIENTED_EDGE('',*,*,#240,.T.);
#240 = EDGE_CURVE('',#125,#241,#243,.T.);
#241 = VERTEX_POINT('',#242);
#242 = CARTESIAN_POINT('',(-7.5,-16.75,9.65));
#243 = LINE('',#244,#245);
#244 = CARTESIAN_POINT('',(-7.5,0.,9.65));
#245 = VECTOR('',#246,1.);
#246 = DIRECTION('',(0.,-1.,0.));
#247 = ORIENTED_EDGE('',*,*,#248,.T.);
#248 = EDGE_CURVE('',#241,#249,#251,.T.);
#249 = VERTEX_POINT('',#250);
#250 = CARTESIAN_POINT('',(-7.25,-17.,9.65));
#251 = CIRCLE('',#252,0.25);
#252 = AXIS2_PLACEMENT_3D('',#253,#254,#255);
#253 = CARTESIAN_POINT('',(-7.25,-16.75,9.65));
#254 = DIRECTION('',(0.,-0.,1.));
#255 = DIRECTION('',(0.,1.,0.));
#256 = ORIENTED_EDGE('',*,*,#257,.T.);
#257 = EDGE_CURVE('',#249,#258,#260,.T.);
#258 = VERTEX_POINT('',#259);
#259 = CARTESIAN_POINT('',(7.25,-17.,9.65));
#260 = LINE('',#261,#262);
#261 = CARTESIAN_POINT('',(-7.5,-17.,9.65));
#262 = VECTOR('',#263,1.);
#263 = DIRECTION('',(1.,0.,0.));
#264 = ORIENTED_EDGE('',*,*,#265,.F.);
#265 = EDGE_CURVE('',#185,#258,#266,.T.);
#266 = CIRCLE('',#267,0.25);
#267 = AXIS2_PLACEMENT_3D('',#268,#269,#270);
#268 = CARTESIAN_POINT('',(7.25,-16.75,9.65));
#269 = DIRECTION('',(0.,0.,-1.));
#270 = DIRECTION('',(0.,1.,0.));
#271 = ORIENTED_EDGE('',*,*,#184,.T.);
#272 = ORIENTED_EDGE('',*,*,#31,.T.);
#273 = ORIENTED_EDGE('',*,*,#274,.T.);
#274 = EDGE_CURVE('',#32,#275,#277,.T.);
#275 = VERTEX_POINT('',#276);
#276 = CARTESIAN_POINT('',(18.,-3.5,9.65));
#277 = LINE('',#278,#279);
#278 = CARTESIAN_POINT('',(-18.,-3.5,9.65));
#279 = VECTOR('',#280,1.);
#280 = DIRECTION('',(1.,0.,0.));
#281 = ORIENTED_EDGE('',*,*,#282,.T.);
#282 = EDGE_CURVE('',#275,#283,#285,.T.);
#283 = VERTEX_POINT('',#284);
#284 = CARTESIAN_POINT('',(18.,3.5,9.65));
#285 = CIRCLE('',#286,3.5);
#286 = AXIS2_PLACEMENT_3D('',#287,#288,#289);
#287 = CARTESIAN_POINT('',(18.,0.,9.65));
#288 = DIRECTION('',(0.,0.,1.));
#289 = DIRECTION('',(1.,0.,0.));
#290 = ORIENTED_EDGE('',*,*,#291,.F.);
#291 = EDGE_CURVE('',#83,#283,#292,.T.);
#292 = LINE('',#293,#294);
#293 = CARTESIAN_POINT('',(-18.,3.5,9.65));
#294 = VECTOR('',#295,1.);
#295 = DIRECTION('',(1.,0.,0.));
#296 = ORIENTED_EDGE('',*,*,#90,.T.);
#297 = ORIENTED_EDGE('',*,*,#298,.F.);
#298 = EDGE_CURVE('',#299,#91,#301,.T.);
#299 = VERTEX_POINT('',#300);
#300 = CARTESIAN_POINT('',(-18.,3.5,9.65));
#301 = LINE('',#302,#303);
#302 = CARTESIAN_POINT('',(-18.,3.5,9.65));
#303 = VECTOR('',#304,1.);
#304 = DIRECTION('',(1.,0.,0.));
#305 = ORIENTED_EDGE('',*,*,#306,.T.);
#306 = EDGE_CURVE('',#299,#307,#309,.T.);
#307 = VERTEX_POINT('',#308);
#308 = CARTESIAN_POINT('',(-18.,-3.5,9.65));
#309 = CIRCLE('',#310,3.5);
#310 = AXIS2_PLACEMENT_3D('',#311,#312,#313);
#311 = CARTESIAN_POINT('',(-18.,0.,9.65));
#312 = DIRECTION('',(0.,0.,1.));
#313 = DIRECTION('',(1.,0.,0.));
#314 = ORIENTED_EDGE('',*,*,#315,.T.);
#315 = EDGE_CURVE('',#307,#117,#316,.T.);
#316 = LINE('',#317,#318);
#317 = CARTESIAN_POINT('',(-18.,-3.5,9.65));
#318 = VECTOR('',#319,1.);
#319 = DIRECTION('',(1.,0.,0.));
#320 = ORIENTED_EDGE('',*,*,#124,.T.);
#321 = FACE_BOUND('',#322,.T.);
#322 = EDGE_LOOP('',(#323));
#323 = ORIENTED_EDGE('',*,*,#324,.F.);
#324 = EDGE_CURVE('',#325,#325,#327,.T.);
#325 = VERTEX_POINT('',#326);
#326 = CARTESIAN_POINT('',(-16.,0.,9.65));
#327 = CIRCLE('',#328,2.);
#328 = AXIS2_PLACEMENT_3D('',#329,#330,#331);
#329 = CARTESIAN_POINT('',(-18.,0.,9.65));
#330 = DIRECTION('',(0.,0.,1.));
#331 = DIRECTION('',(1.,0.,0.));
#332 = FACE_BOUND('',#333,.T.);
#333 = EDGE_LOOP('',(#334));
#334 = ORIENTED_EDGE('',*,*,#335,.F.);
#335 = EDGE_CURVE('',#336,#336,#338,.T.);
#336 = VERTEX_POINT('',#337);
#337 = CARTESIAN_POINT('',(20.267061,0.,9.65));
#338 = CIRCLE('',#339,2.);
#339 = AXIS2_PLACEMENT_3D('',#340,#341,#342);
#340 = CARTESIAN_POINT('',(18.267061,0.,9.65));
#341 = DIRECTION('',(0.,0.,1.));
#342 = DIRECTION('',(1.,0.,0.));
#343 = FACE_BOUND('',#344,.T.);
#344 = EDGE_LOOP('',(#345));
#345 = ORIENTED_EDGE('',*,*,#346,.F.);
#346 = EDGE_CURVE('',#347,#347,#349,.T.);
#347 = VERTEX_POINT('',#348);
#348 = CARTESIAN_POINT('',(4.55,8.,9.65));
#349 = CIRCLE('',#350,4.55);
#350 = AXIS2_PLACEMENT_3D('',#351,#352,#353);
#351 = CARTESIAN_POINT('',(0.,8.,9.65));
#352 = DIRECTION('',(0.,0.,1.));
#353 = DIRECTION('',(1.,0.,0.));
#354 = PLANE('',#355);
#355 = AXIS2_PLACEMENT_3D('',#356,#357,#358);
#356 = CARTESIAN_POINT('',(8.88E-15,-1.894042266404,9.65));
#357 = DIRECTION('',(0.,0.,1.));
#358 = DIRECTION('',(1.,0.,0.));
#359 = ADVANCED_FACE('',(#360),#378,.F.);
#360 = FACE_BOUND('',#361,.F.);
#361 = EDGE_LOOP('',(#362,#363,#371,#377));
#362 = ORIENTED_EDGE('',*,*,#155,.T.);
#363 = ORIENTED_EDGE('',*,*,#364,.T.);
#364 = EDGE_CURVE('',#142,#365,#367,.T.);
#365 = VERTEX_POINT('',#366);
#366 = CARTESIAN_POINT('',(-7.25,-16.75,-6.35));
#367 = LINE('',#368,#369);
#368 = CARTESIAN_POINT('',(-7.25,-11.82159041753,-6.35));
#369 = VECTOR('',#370,1.);
#370 = DIRECTION('',(0.,-1.,0.));
#371 = ORIENTED_EDGE('',*,*,#372,.T.);
#372 = EDGE_CURVE('',#365,#216,#373,.T.);
#373 = LINE('',#374,#375);
#374 = CARTESIAN_POINT('',(-7.5,-16.75,-6.35));
#375 = VECTOR('',#376,1.);
#376 = DIRECTION('',(1.,0.,0.));
#377 = ORIENTED_EDGE('',*,*,#224,.T.);
#378 = PLANE('',#379);
#379 = AXIS2_PLACEMENT_3D('',#380,#381,#382);
#380 = CARTESIAN_POINT('',(-8.9E-16,-8.5,-6.35));
#381 = DIRECTION('',(0.,0.,1.));
#382 = DIRECTION('',(1.,0.,0.));
#383 = ADVANCED_FACE('',(#384),#402,.T.);
#384 = FACE_BOUND('',#385,.T.);
#385 = EDGE_LOOP('',(#386,#387,#388,#396));
#386 = ORIENTED_EDGE('',*,*,#274,.F.);
#387 = ORIENTED_EDGE('',*,*,#40,.T.);
#388 = ORIENTED_EDGE('',*,*,#389,.T.);
#389 = EDGE_CURVE('',#41,#390,#392,.T.);
#390 = VERTEX_POINT('',#391);
#391 = CARTESIAN_POINT('',(18.,-3.5,8.65));
#392 = LINE('',#393,#394);
#393 = CARTESIAN_POINT('',(-18.,-3.5,8.65));
#394 = VECTOR('',#395,1.);
#395 = DIRECTION('',(1.,0.,0.));
#396 = ORIENTED_EDGE('',*,*,#397,.F.);
#397 = EDGE_CURVE('',#275,#390,#398,.T.);
#398 = LINE('',#399,#400);
#399 = CARTESIAN_POINT('',(18.,-3.5,9.65));
#400 = VECTOR('',#401,1.);
#401 = DIRECTION('',(-0.,-0.,-1.));
#402 = PLANE('',#403);
#403 = AXIS2_PLACEMENT_3D('',#404,#405,#406);
#404 = CARTESIAN_POINT('',(-18.,-3.5,9.65));
#405 = DIRECTION('',(0.,-1.,0.));
#406 = DIRECTION('',(1.,0.,0.));
#407 = ADVANCED_FACE('',(#408),#427,.T.);
#408 = FACE_BOUND('',#409,.F.);
#409 = EDGE_LOOP('',(#410,#411,#419,#426));
#410 = ORIENTED_EDGE('',*,*,#141,.T.);
#411 = ORIENTED_EDGE('',*,*,#412,.T.);
#412 = EDGE_CURVE('',#134,#413,#415,.T.);
#413 = VERTEX_POINT('',#414);
#414 = CARTESIAN_POINT('',(-7.5,-16.75,-6.1));
#415 = LINE('',#416,#417);
#416 = CARTESIAN_POINT('',(-7.5,-11.82159041753,-6.1));
#417 = VECTOR('',#418,1.);
#418 = DIRECTION('',(0.,-1.,0.));
#419 = ORIENTED_EDGE('',*,*,#420,.F.);
#420 = EDGE_CURVE('',#365,#413,#421,.T.);
#421 = CIRCLE('',#422,0.25);
#422 = AXIS2_PLACEMENT_3D('',#423,#424,#425);
#423 = CARTESIAN_POINT('',(-7.25,-16.75,-6.1));
#424 = DIRECTION('',(-6.E-17,1.,0.));
#425 = DIRECTION('',(-1.,-6.E-17,0.));
#426 = ORIENTED_EDGE('',*,*,#364,.F.);
#427 = CYLINDRICAL_SURFACE('',#428,0.25);
#428 = AXIS2_PLACEMENT_3D('',#429,#430,#431);
#429 = CARTESIAN_POINT('',(-7.25,-11.82159041753,-6.1));
#430 = DIRECTION('',(0.,-1.,0.));
#431 = DIRECTION('',(-0.,-0.,-1.));
#432 = ADVANCED_FACE('',(#433,#453),#464,.F.);
#433 = FACE_BOUND('',#434,.F.);
#434 = EDGE_LOOP('',(#435,#443,#444,#445,#446));
#435 = ORIENTED_EDGE('',*,*,#436,.F.);
#436 = EDGE_CURVE('',#74,#437,#439,.T.);
#437 = VERTEX_POINT('',#438);
#438 = CARTESIAN_POINT('',(18.,3.5,8.65));
#439 = LINE('',#440,#441);
#440 = CARTESIAN_POINT('',(-18.,3.5,8.65));
#441 = VECTOR('',#442,1.);
#442 = DIRECTION('',(1.,0.,0.));
#443 = ORIENTED_EDGE('',*,*,#73,.T.);
#444 = ORIENTED_EDGE('',*,*,#48,.T.);
#445 = ORIENTED_EDGE('',*,*,#389,.T.);
#446 = ORIENTED_EDGE('',*,*,#447,.T.);
#447 = EDGE_CURVE('',#390,#437,#448,.T.);
#448 = CIRCLE('',#449,3.5);
#449 = AXIS2_PLACEMENT_3D('',#450,#451,#452);
#450 = CARTESIAN_POINT('',(18.,0.,8.65));
#451 = DIRECTION('',(0.,0.,1.));
#452 = DIRECTION('',(1.,0.,0.));
#453 = FACE_BOUND('',#454,.F.);
#454 = EDGE_LOOP('',(#455));
#455 = ORIENTED_EDGE('',*,*,#456,.F.);
#456 = EDGE_CURVE('',#457,#457,#459,.T.);
#457 = VERTEX_POINT('',#458);
#458 = CARTESIAN_POINT('',(20.267061,0.,8.65));
#459 = CIRCLE('',#460,2.);
#460 = AXIS2_PLACEMENT_3D('',#461,#462,#463);
#461 = CARTESIAN_POINT('',(18.267061,0.,8.65));
#462 = DIRECTION('',(0.,0.,1.));
#463 = DIRECTION('',(1.,0.,0.));
#464 = PLANE('',#465);
#465 = AXIS2_PLACEMENT_3D('',#466,#467,#468);
#466 = CARTESIAN_POINT('',(2.439151772689E-02,3.E-17,8.65));
#467 = DIRECTION('',(0.,0.,1.));
#468 = DIRECTION('',(1.,0.,0.));
#469 = ADVANCED_FACE('',(#470),#481,.T.);
#470 = FACE_BOUND('',#471,.T.);
#471 = EDGE_LOOP('',(#472,#473,#474,#475));
#472 = ORIENTED_EDGE('',*,*,#240,.F.);
#473 = ORIENTED_EDGE('',*,*,#133,.T.);
#474 = ORIENTED_EDGE('',*,*,#412,.T.);
#475 = ORIENTED_EDGE('',*,*,#476,.F.);
#476 = EDGE_CURVE('',#241,#413,#477,.T.);
#477 = LINE('',#478,#479);
#478 = CARTESIAN_POINT('',(-7.5,-16.75,9.65));
#479 = VECTOR('',#480,1.);
#480 = DIRECTION('',(-0.,-0.,-1.));
#481 = PLANE('',#482);
#482 = AXIS2_PLACEMENT_3D('',#483,#484,#485);
#483 = CARTESIAN_POINT('',(-7.5,0.,9.65));
#484 = DIRECTION('',(-1.,0.,0.));
#485 = DIRECTION('',(0.,-1.,0.));
#486 = ADVANCED_FACE('',(#487),#507,.T.);
#487 = FACE_BOUND('',#488,.F.);
#488 = EDGE_LOOP('',(#489,#498,#499,#500));
#489 = ORIENTED_EDGE('',*,*,#490,.F.);
#490 = EDGE_CURVE('',#58,#491,#493,.T.);
#491 = VERTEX_POINT('',#492);
#492 = CARTESIAN_POINT('',(13.5,0.,-9.65));
#493 = CIRCLE('',#494,0.5);
#494 = AXIS2_PLACEMENT_3D('',#495,#496,#497);
#495 = CARTESIAN_POINT('',(13.5,0.,-9.15));
#496 = DIRECTION('',(-0.,1.,0.));
#497 = DIRECTION('',(1.,0.,0.));
#498 = ORIENTED_EDGE('',*,*,#65,.F.);
#499 = ORIENTED_EDGE('',*,*,#490,.T.);
#500 = ORIENTED_EDGE('',*,*,#501,.T.);
#501 = EDGE_CURVE('',#491,#491,#502,.T.);
#502 = CIRCLE('',#503,13.5);
#503 = AXIS2_PLACEMENT_3D('',#504,#505,#506);
#504 = CARTESIAN_POINT('',(0.,0.,-9.65));
#505 = DIRECTION('',(0.,0.,1.));
#506 = DIRECTION('',(1.,0.,0.));
#507 = TOROIDAL_SURFACE('',#508,13.5,0.5);
#508 = AXIS2_PLACEMENT_3D('',#509,#510,#511);
#509 = CARTESIAN_POINT('',(0.,0.,-9.15));
#510 = DIRECTION('',(-0.,-0.,-1.));
#511 = DIRECTION('',(1.,0.,0.));
#512 = ADVANCED_FACE('',(#513),#531,.T.);
#513 = FACE_BOUND('',#514,.T.);
#514 = EDGE_LOOP('',(#515,#516,#524,#530));
#515 = ORIENTED_EDGE('',*,*,#315,.F.);
#516 = ORIENTED_EDGE('',*,*,#517,.T.);
#517 = EDGE_CURVE('',#307,#518,#520,.T.);
#518 = VERTEX_POINT('',#519);
#519 = CARTESIAN_POINT('',(-18.,-3.5,8.65));
#520 = LINE('',#521,#522);
#521 = CARTESIAN_POINT('',(-18.,-3.5,9.65));
#522 = VECTOR('',#523,1.);
#523 = DIRECTION('',(-0.,-0.,-1.));
#524 = ORIENTED_EDGE('',*,*,#525,.T.);
#525 = EDGE_CURVE('',#518,#108,#526,.T.);
#526 = LINE('',#527,#528);
#527 = CARTESIAN_POINT('',(-18.,-3.5,8.65));
#528 = VECTOR('',#529,1.);
#529 = DIRECTION('',(1.,0.,0.));
#530 = ORIENTED_EDGE('',*,*,#116,.F.);
#531 = PLANE('',#532);
#532 = AXIS2_PLACEMENT_3D('',#533,#534,#535);
#533 = CARTESIAN_POINT('',(-18.,-3.5,9.65));
#534 = DIRECTION('',(0.,-1.,0.));
#535 = DIRECTION('',(1.,0.,0.));
#536 = ADVANCED_FACE('',(#537,#556),#567,.F.);
#537 = FACE_BOUND('',#538,.F.);
#538 = EDGE_LOOP('',(#539,#547,#554,#555));
#539 = ORIENTED_EDGE('',*,*,#540,.F.);
#540 = EDGE_CURVE('',#541,#100,#543,.T.);
#541 = VERTEX_POINT('',#542);
#542 = CARTESIAN_POINT('',(-18.,3.5,8.65));
#543 = LINE('',#544,#545);
#544 = CARTESIAN_POINT('',(-18.,3.5,8.65));
#545 = VECTOR('',#546,1.);
#546 = DIRECTION('',(1.,0.,0.));
#547 = ORIENTED_EDGE('',*,*,#548,.T.);
#548 = EDGE_CURVE('',#541,#518,#549,.T.);
#549 = CIRCLE('',#550,3.5);
#550 = AXIS2_PLACEMENT_3D('',#551,#552,#553);
#551 = CARTESIAN_POINT('',(-18.,0.,8.65));
#552 = DIRECTION('',(0.,0.,1.));
#553 = DIRECTION('',(1.,0.,0.));
#554 = ORIENTED_EDGE('',*,*,#525,.T.);
#555 = ORIENTED_EDGE('',*,*,#107,.T.);
#556 = FACE_BOUND('',#557,.F.);
#557 = EDGE_LOOP('',(#558));
#558 = ORIENTED_EDGE('',*,*,#559,.F.);
#559 = EDGE_CURVE('',#560,#560,#562,.T.);
#560 = VERTEX_POINT('',#561);
#561 = CARTESIAN_POINT('',(-16.,0.,8.65));
#562 = CIRCLE('',#563,2.);
#563 = AXIS2_PLACEMENT_3D('',#564,#565,#566);
#564 = CARTESIAN_POINT('',(-18.,0.,8.65));
#565 = DIRECTION('',(0.,0.,1.));
#566 = DIRECTION('',(1.,0.,0.));
#567 = PLANE('',#568);
#568 = AXIS2_PLACEMENT_3D('',#569,#570,#571);
#569 = CARTESIAN_POINT('',(2.439151772689E-02,3.E-17,8.65));
#570 = DIRECTION('',(0.,0.,1.));
#571 = DIRECTION('',(1.,0.,0.));
#572 = ADVANCED_FACE('',(#573),#584,.F.);
#573 = FACE_BOUND('',#574,.F.);
#574 = EDGE_LOOP('',(#575,#576,#582,#583));
#575 = ORIENTED_EDGE('',*,*,#298,.F.);
#576 = ORIENTED_EDGE('',*,*,#577,.T.);
#577 = EDGE_CURVE('',#299,#541,#578,.T.);
#578 = LINE('',#579,#580);
#579 = CARTESIAN_POINT('',(-18.,3.5,9.65));
#580 = VECTOR('',#581,1.);
#581 = DIRECTION('',(-0.,-0.,-1.));
#582 = ORIENTED_EDGE('',*,*,#540,.T.);
#583 = ORIENTED_EDGE('',*,*,#99,.F.);
#584 = PLANE('',#585);
#585 = AXIS2_PLACEMENT_3D('',#586,#587,#588);
#586 = CARTESIAN_POINT('',(-18.,3.5,9.65));
#587 = DIRECTION('',(0.,-1.,0.));
#588 = DIRECTION('',(1.,0.,0.));
#589 = ADVANCED_FACE('',(#590),#601,.F.);
#590 = FACE_BOUND('',#591,.F.);
#591 = EDGE_LOOP('',(#592,#593,#594,#595));
#592 = ORIENTED_EDGE('',*,*,#291,.F.);
#593 = ORIENTED_EDGE('',*,*,#82,.T.);
#594 = ORIENTED_EDGE('',*,*,#436,.T.);
#595 = ORIENTED_EDGE('',*,*,#596,.F.);
#596 = EDGE_CURVE('',#283,#437,#597,.T.);
#597 = LINE('',#598,#599);
#598 = CARTESIAN_POINT('',(18.,3.5,9.65));
#599 = VECTOR('',#600,1.);
#600 = DIRECTION('',(-0.,-0.,-1.));
#601 = PLANE('',#602);
#602 = AXIS2_PLACEMENT_3D('',#603,#604,#605);
#603 = CARTESIAN_POINT('',(-18.,3.5,9.65));
#604 = DIRECTION('',(0.,-1.,0.));
#605 = DIRECTION('',(1.,0.,0.));
#606 = ADVANCED_FACE('',(#607),#626,.T.);
#607 = FACE_BOUND('',#608,.T.);
#608 = EDGE_LOOP('',(#609,#610,#618,#625));
#609 = ORIENTED_EDGE('',*,*,#265,.T.);
#610 = ORIENTED_EDGE('',*,*,#611,.T.);
#611 = EDGE_CURVE('',#258,#612,#614,.T.);
#612 = VERTEX_POINT('',#613);
#613 = CARTESIAN_POINT('',(7.25,-17.,-6.1));
#614 = LINE('',#615,#616);
#615 = CARTESIAN_POINT('',(7.25,-17.,9.65));
#616 = VECTOR('',#617,1.);
#617 = DIRECTION('',(-0.,-0.,-1.));
#618 = ORIENTED_EDGE('',*,*,#619,.F.);
#619 = EDGE_CURVE('',#193,#612,#620,.T.);
#620 = CIRCLE('',#621,0.25);
#621 = AXIS2_PLACEMENT_3D('',#622,#623,#624);
#622 = CARTESIAN_POINT('',(7.25,-16.75,-6.1));
#623 = DIRECTION('',(0.,0.,-1.));
#624 = DIRECTION('',(0.,-1.,0.));
#625 = ORIENTED_EDGE('',*,*,#192,.F.);
#626 = CYLINDRICAL_SURFACE('',#627,0.25);
#627 = AXIS2_PLACEMENT_3D('',#628,#629,#630);
#628 = CARTESIAN_POINT('',(7.25,-16.75,9.65));
#629 = DIRECTION('',(-0.,-0.,-1.));
#630 = DIRECTION('',(1.,0.,0.));
#631 = ADVANCED_FACE('',(#632),#643,.T.);
#632 = FACE_BOUND('',#633,.F.);
#633 = EDGE_LOOP('',(#634,#635,#636));
#634 = ORIENTED_EDGE('',*,*,#619,.F.);
#635 = ORIENTED_EDGE('',*,*,#215,.T.);
#636 = ORIENTED_EDGE('',*,*,#637,.F.);
#637 = EDGE_CURVE('',#612,#216,#638,.T.);
#638 = CIRCLE('',#639,0.25);
#639 = AXIS2_PLACEMENT_3D('',#640,#641,#642);
#640 = CARTESIAN_POINT('',(7.25,-16.75,-6.1));
#641 = DIRECTION('',(1.,0.,0.));
#642 = DIRECTION('',(0.,-1.,0.));
#643 = SPHERICAL_SURFACE('',#644,0.25);
#644 = AXIS2_PLACEMENT_3D('',#645,#646,#647);
#645 = CARTESIAN_POINT('',(7.25,-16.75,-6.1));
#646 = DIRECTION('',(-1.,-0.,-0.));
#647 = DIRECTION('',(0.,-1.,0.));
#648 = ADVANCED_FACE('',(#649),#668,.T.);
#649 = FACE_BOUND('',#650,.F.);
#650 = EDGE_LOOP('',(#651,#652,#660,#667));
#651 = ORIENTED_EDGE('',*,*,#248,.T.);
#652 = ORIENTED_EDGE('',*,*,#653,.T.);
#653 = EDGE_CURVE('',#249,#654,#656,.T.);
#654 = VERTEX_POINT('',#655);
#655 = CARTESIAN_POINT('',(-7.25,-17.,-6.1));
#656 = LINE('',#657,#658);
#657 = CARTESIAN_POINT('',(-7.25,-17.,9.65));
#658 = VECTOR('',#659,1.);
#659 = DIRECTION('',(-0.,-0.,-1.));
#660 = ORIENTED_EDGE('',*,*,#661,.T.);
#661 = EDGE_CURVE('',#654,#413,#662,.T.);
#662 = CIRCLE('',#663,0.25);
#663 = AXIS2_PLACEMENT_3D('',#664,#665,#666);
#664 = CARTESIAN_POINT('',(-7.25,-16.75,-6.1));
#665 = DIRECTION('',(-0.,-0.,-1.));
#666 = DIRECTION('',(0.,-1.,0.));
#667 = ORIENTED_EDGE('',*,*,#476,.F.);
#668 = CYLINDRICAL_SURFACE('',#669,0.25);
#669 = AXIS2_PLACEMENT_3D('',#670,#671,#672);
#670 = CARTESIAN_POINT('',(-7.25,-16.75,9.65));
#671 = DIRECTION('',(-0.,-0.,-1.));
#672 = DIRECTION('',(-1.,0.,0.));
#673 = ADVANCED_FACE('',(#674),#685,.T.);
#674 = FACE_BOUND('',#675,.T.);
#675 = EDGE_LOOP('',(#676,#677,#678,#684));
#676 = ORIENTED_EDGE('',*,*,#257,.F.);
#677 = ORIENTED_EDGE('',*,*,#653,.T.);
#678 = ORIENTED_EDGE('',*,*,#679,.T.);
#679 = EDGE_CURVE('',#654,#612,#680,.T.);
#680 = LINE('',#681,#682);
#681 = CARTESIAN_POINT('',(-7.5,-17.,-6.1));
#682 = VECTOR('',#683,1.);
#683 = DIRECTION('',(1.,0.,0.));
#684 = ORIENTED_EDGE('',*,*,#611,.F.);
#685 = PLANE('',#686);
#686 = AXIS2_PLACEMENT_3D('',#687,#688,#689);
#687 = CARTESIAN_POINT('',(-7.5,-17.,9.65));
#688 = DIRECTION('',(0.,-1.,0.));
#689 = DIRECTION('',(1.,0.,0.));
#690 = ADVANCED_FACE('',(#691),#697,.T.);
#691 = FACE_BOUND('',#692,.T.);
#692 = EDGE_LOOP('',(#693,#694,#695,#696));
#693 = ORIENTED_EDGE('',*,*,#577,.T.);
#694 = ORIENTED_EDGE('',*,*,#548,.T.);
#695 = ORIENTED_EDGE('',*,*,#517,.F.);
#696 = ORIENTED_EDGE('',*,*,#306,.F.);
#697 = CYLINDRICAL_SURFACE('',#698,3.5);
#698 = AXIS2_PLACEMENT_3D('',#699,#700,#701);
#699 = CARTESIAN_POINT('',(-18.,0.,9.65));
#700 = DIRECTION('',(0.,0.,1.));
#701 = DIRECTION('',(1.,0.,0.));
#702 = ADVANCED_FACE('',(#703),#709,.T.);
#703 = FACE_BOUND('',#704,.T.);
#704 = EDGE_LOOP('',(#705,#706,#707,#708));
#705 = ORIENTED_EDGE('',*,*,#397,.T.);
#706 = ORIENTED_EDGE('',*,*,#447,.T.);
#707 = ORIENTED_EDGE('',*,*,#596,.F.);
#708 = ORIENTED_EDGE('',*,*,#282,.F.);
#709 = CYLINDRICAL_SURFACE('',#710,3.5);
#710 = AXIS2_PLACEMENT_3D('',#711,#712,#713);
#711 = CARTESIAN_POINT('',(18.,0.,9.65));
#712 = DIRECTION('',(0.,0.,1.));
#713 = DIRECTION('',(1.,0.,0.));
#714 = ADVANCED_FACE('',(#715),#726,.F.);
#715 = FACE_BOUND('',#716,.F.);
#716 = EDGE_LOOP('',(#717,#723,#724,#725));
#717 = ORIENTED_EDGE('',*,*,#718,.T.);
#718 = EDGE_CURVE('',#325,#560,#719,.T.);
#719 = LINE('',#720,#721);
#720 = CARTESIAN_POINT('',(-16.,0.,9.65));
#721 = VECTOR('',#722,1.);
#722 = DIRECTION('',(-0.,-0.,-1.));
#723 = ORIENTED_EDGE('',*,*,#559,.T.);
#724 = ORIENTED_EDGE('',*,*,#718,.F.);
#725 = ORIENTED_EDGE('',*,*,#324,.F.);
#726 = CYLINDRICAL_SURFACE('',#727,2.);
#727 = AXIS2_PLACEMENT_3D('',#728,#729,#730);
#728 = CARTESIAN_POINT('',(-18.,0.,9.65));
#729 = DIRECTION('',(0.,0.,1.));
#730 = DIRECTION('',(1.,0.,0.));
#731 = ADVANCED_FACE('',(#732),#743,.F.);
#732 = FACE_BOUND('',#733,.F.);
#733 = EDGE_LOOP('',(#734,#740,#741,#742));
#734 = ORIENTED_EDGE('',*,*,#735,.T.);
#735 = EDGE_CURVE('',#336,#457,#736,.T.);
#736 = LINE('',#737,#738);
#737 = CARTESIAN_POINT('',(20.267061,0.,9.65));
#738 = VECTOR('',#739,1.);
#739 = DIRECTION('',(-0.,-0.,-1.));
#740 = ORIENTED_EDGE('',*,*,#456,.T.);
#741 = ORIENTED_EDGE('',*,*,#735,.F.);
#742 = ORIENTED_EDGE('',*,*,#335,.F.);
#743 = CYLINDRICAL_SURFACE('',#744,2.);
#744 = AXIS2_PLACEMENT_3D('',#745,#746,#747);
#745 = CARTESIAN_POINT('',(18.267061,0.,9.65));
#746 = DIRECTION('',(0.,0.,1.));
#747 = DIRECTION('',(1.,0.,0.));
#748 = ADVANCED_FACE('',(#749),#768,.T.);
#749 = FACE_BOUND('',#750,.F.);
#750 = EDGE_LOOP('',(#751,#759,#766,#767));
#751 = ORIENTED_EDGE('',*,*,#752,.T.);
#752 = EDGE_CURVE('',#347,#753,#755,.T.);
#753 = VERTEX_POINT('',#754);
#754 = CARTESIAN_POINT('',(4.55,8.,11.65));
#755 = LINE('',#756,#757);
#756 = CARTESIAN_POINT('',(4.55,8.,9.65));
#757 = VECTOR('',#758,1.);
#758 = DIRECTION('',(0.,0.,1.));
#759 = ORIENTED_EDGE('',*,*,#760,.T.);
#760 = EDGE_CURVE('',#753,#753,#761,.T.);
#761 = CIRCLE('',#762,4.55);
#762 = AXIS2_PLACEMENT_3D('',#763,#764,#765);
#763 = CARTESIAN_POINT('',(0.,8.,11.65));
#764 = DIRECTION('',(0.,0.,1.));
#765 = DIRECTION('',(1.,0.,0.));
#766 = ORIENTED_EDGE('',*,*,#752,.F.);
#767 = ORIENTED_EDGE('',*,*,#346,.F.);
#768 = CYLINDRICAL_SURFACE('',#769,4.55);
#769 = AXIS2_PLACEMENT_3D('',#770,#771,#772);
#770 = CARTESIAN_POINT('',(0.,8.,9.65));
#771 = DIRECTION('',(-0.,-0.,-1.));
#772 = DIRECTION('',(1.,0.,0.));
#773 = ADVANCED_FACE('',(#774),#786,.T.);
#774 = FACE_BOUND('',#775,.F.);
#775 = EDGE_LOOP('',(#776,#783,#784,#785));
#776 = ORIENTED_EDGE('',*,*,#777,.T.);
#777 = EDGE_CURVE('',#365,#654,#778,.T.);
#778 = CIRCLE('',#779,0.25);
#779 = AXIS2_PLACEMENT_3D('',#780,#781,#782);
#780 = CARTESIAN_POINT('',(-7.25,-16.75,-6.1));
#781 = DIRECTION('',(-1.,0.,0.));
#782 = DIRECTION('',(0.,-1.,0.));
#783 = ORIENTED_EDGE('',*,*,#679,.T.);
#784 = ORIENTED_EDGE('',*,*,#637,.T.);
#785 = ORIENTED_EDGE('',*,*,#372,.F.);
#786 = CYLINDRICAL_SURFACE('',#787,0.25);
#787 = AXIS2_PLACEMENT_3D('',#788,#789,#790);
#788 = CARTESIAN_POINT('',(-7.5,-16.75,-6.1));
#789 = DIRECTION('',(1.,0.,0.));
#790 = DIRECTION('',(0.,0.,-1.));
#791 = ADVANCED_FACE('',(#792),#797,.T.);
#792 = FACE_BOUND('',#793,.F.);
#793 = EDGE_LOOP('',(#794,#795,#796));
#794 = ORIENTED_EDGE('',*,*,#777,.F.);
#795 = ORIENTED_EDGE('',*,*,#420,.T.);
#796 = ORIENTED_EDGE('',*,*,#661,.F.);
#797 = SPHERICAL_SURFACE('',#798,0.25);
#798 = AXIS2_PLACEMENT_3D('',#799,#800,#801);
#799 = CARTESIAN_POINT('',(-7.25,-16.75,-6.1));
#800 = DIRECTION('',(0.,0.,1.));
#801 = DIRECTION('',(0.,-1.,0.));
#802 = ADVANCED_FACE('',(#803),#806,.F.);
#803 = FACE_BOUND('',#804,.F.);
#804 = EDGE_LOOP('',(#805));
#805 = ORIENTED_EDGE('',*,*,#501,.T.);
#806 = PLANE('',#807);
#807 = AXIS2_PLACEMENT_3D('',#808,#809,#810);
#808 = CARTESIAN_POINT('',(-7.8E-16,9.9E-16,-9.65));
#809 = DIRECTION('',(0.,0.,1.));
#810 = DIRECTION('',(1.,0.,0.));
#811 = ADVANCED_FACE('',(#812,#815),#826,.T.);
#812 = FACE_BOUND('',#813,.T.);
#813 = EDGE_LOOP('',(#814));
#814 = ORIENTED_EDGE('',*,*,#760,.T.);
#815 = FACE_BOUND('',#816,.T.);
#816 = EDGE_LOOP('',(#817));
#817 = ORIENTED_EDGE('',*,*,#818,.F.);
#818 = EDGE_CURVE('',#819,#819,#821,.T.);
#819 = VERTEX_POINT('',#820);
#820 = CARTESIAN_POINT('',(2.5,8.,11.65));
#821 = CIRCLE('',#822,2.5);
#822 = AXIS2_PLACEMENT_3D('',#823,#824,#825);
#823 = CARTESIAN_POINT('',(0.,8.,11.65));
#824 = DIRECTION('',(0.,0.,1.));
#825 = DIRECTION('',(1.,0.,0.));
#826 = PLANE('',#827);
#827 = AXIS2_PLACEMENT_3D('',#828,#829,#830);
#828 = CARTESIAN_POINT('',(-3.E-16,8.,11.65));
#829 = DIRECTION('',(0.,0.,1.));
#830 = DIRECTION('',(1.,0.,0.));
#831 = ADVANCED_FACE('',(#832),#919,.T.);
#832 = FACE_BOUND('',#833,.F.);
#833 = EDGE_LOOP('',(#834,#835,#843,#852,#860,#869,#877,#886,#894,#903,
    #911,#918));
#834 = ORIENTED_EDGE('',*,*,#818,.F.);
#835 = ORIENTED_EDGE('',*,*,#836,.T.);
#836 = EDGE_CURVE('',#819,#837,#839,.T.);
#837 = VERTEX_POINT('',#838);
#838 = CARTESIAN_POINT('',(2.5,8.,13.65));
#839 = LINE('',#840,#841);
#840 = CARTESIAN_POINT('',(2.5,8.,11.65));
#841 = VECTOR('',#842,1.);
#842 = DIRECTION('',(0.,0.,1.));
#843 = ORIENTED_EDGE('',*,*,#844,.F.);
#844 = EDGE_CURVE('',#845,#837,#847,.T.);
#845 = VERTEX_POINT('',#846);
#846 = CARTESIAN_POINT('',(1.5,10.,13.65));
#847 = CIRCLE('',#848,2.5);
#848 = AXIS2_PLACEMENT_3D('',#849,#850,#851);
#849 = CARTESIAN_POINT('',(0.,8.,13.65));
#850 = DIRECTION('',(0.,0.,-1.));
#851 = DIRECTION('',(1.,0.,0.));
#852 = ORIENTED_EDGE('',*,*,#853,.F.);
#853 = EDGE_CURVE('',#854,#845,#856,.T.);
#854 = VERTEX_POINT('',#855);
#855 = CARTESIAN_POINT('',(1.5,10.,19.65));
#856 = LINE('',#857,#858);
#857 = CARTESIAN_POINT('',(1.5,10.,11.65));
#858 = VECTOR('',#859,1.);
#859 = DIRECTION('',(-0.,-0.,-1.));
#860 = ORIENTED_EDGE('',*,*,#861,.T.);
#861 = EDGE_CURVE('',#854,#862,#864,.T.);
#862 = VERTEX_POINT('',#863);
#863 = CARTESIAN_POINT('',(-1.5,10.,19.65));
#864 = CIRCLE('',#865,2.5);
#865 = AXIS2_PLACEMENT_3D('',#866,#867,#868);
#866 = CARTESIAN_POINT('',(0.,8.,19.65));
#867 = DIRECTION('',(0.,0.,1.));
#868 = DIRECTION('',(1.,0.,0.));
#869 = ORIENTED_EDGE('',*,*,#870,.T.);
#870 = EDGE_CURVE('',#862,#871,#873,.T.);
#871 = VERTEX_POINT('',#872);
#872 = CARTESIAN_POINT('',(-1.5,10.,13.65));
#873 = LINE('',#874,#875);
#874 = CARTESIAN_POINT('',(-1.5,10.,11.65));
#875 = VECTOR('',#876,1.);
#876 = DIRECTION('',(-0.,-0.,-1.));
#877 = ORIENTED_EDGE('',*,*,#878,.F.);
#878 = EDGE_CURVE('',#879,#871,#881,.T.);
#879 = VERTEX_POINT('',#880);
#880 = CARTESIAN_POINT('',(-1.5,6.,13.65));
#881 = CIRCLE('',#882,2.5);
#882 = AXIS2_PLACEMENT_3D('',#883,#884,#885);
#883 = CARTESIAN_POINT('',(0.,8.,13.65));
#884 = DIRECTION('',(0.,0.,-1.));
#885 = DIRECTION('',(1.,0.,0.));
#886 = ORIENTED_EDGE('',*,*,#887,.F.);
#887 = EDGE_CURVE('',#888,#879,#890,.T.);
#888 = VERTEX_POINT('',#889);
#889 = CARTESIAN_POINT('',(-1.5,6.,19.65));
#890 = LINE('',#891,#892);
#891 = CARTESIAN_POINT('',(-1.5,6.,11.65));
#892 = VECTOR('',#893,1.);
#893 = DIRECTION('',(-0.,-0.,-1.));
#894 = ORIENTED_EDGE('',*,*,#895,.T.);
#895 = EDGE_CURVE('',#888,#896,#898,.T.);
#896 = VERTEX_POINT('',#897);
#897 = CARTESIAN_POINT('',(1.5,6.,19.65));
#898 = CIRCLE('',#899,2.5);
#899 = AXIS2_PLACEMENT_3D('',#900,#901,#902);
#900 = CARTESIAN_POINT('',(0.,8.,19.65));
#901 = DIRECTION('',(0.,0.,1.));
#902 = DIRECTION('',(1.,0.,0.));
#903 = ORIENTED_EDGE('',*,*,#904,.T.);
#904 = EDGE_CURVE('',#896,#905,#907,.T.);
#905 = VERTEX_POINT('',#906);
#906 = CARTESIAN_POINT('',(1.5,6.,13.65));
#907 = LINE('',#908,#909);
#908 = CARTESIAN_POINT('',(1.5,6.,11.65));
#909 = VECTOR('',#910,1.);
#910 = DIRECTION('',(-0.,-0.,-1.));
#911 = ORIENTED_EDGE('',*,*,#912,.F.);
#912 = EDGE_CURVE('',#837,#905,#913,.T.);
#913 = CIRCLE('',#914,2.5);
#914 = AXIS2_PLACEMENT_3D('',#915,#916,#917);
#915 = CARTESIAN_POINT('',(0.,8.,13.65));
#916 = DIRECTION('',(0.,0.,-1.));
#917 = DIRECTION('',(1.,0.,0.));
#918 = ORIENTED_EDGE('',*,*,#836,.F.);
#919 = CYLINDRICAL_SURFACE('',#920,2.5);
#920 = AXIS2_PLACEMENT_3D('',#921,#922,#923);
#921 = CARTESIAN_POINT('',(0.,8.,11.65));
#922 = DIRECTION('',(-0.,-0.,-1.));
#923 = DIRECTION('',(1.,0.,0.));
#924 = ADVANCED_FACE('',(#925),#935,.T.);
#925 = FACE_BOUND('',#926,.T.);
#926 = EDGE_LOOP('',(#927,#928,#934));
#927 = ORIENTED_EDGE('',*,*,#844,.F.);
#928 = ORIENTED_EDGE('',*,*,#929,.T.);
#929 = EDGE_CURVE('',#845,#905,#930,.T.);
#930 = LINE('',#931,#932);
#931 = CARTESIAN_POINT('',(1.5,11.959522,13.65));
#932 = VECTOR('',#933,1.);
#933 = DIRECTION('',(0.,-1.,0.));
#934 = ORIENTED_EDGE('',*,*,#912,.F.);
#935 = PLANE('',#936);
#936 = AXIS2_PLACEMENT_3D('',#937,#938,#939);
#937 = CARTESIAN_POINT('',(-2.11206319019E-03,7.966953846099,13.65));
#938 = DIRECTION('',(0.,0.,1.));
#939 = DIRECTION('',(1.,0.,0.));
#940 = ADVANCED_FACE('',(#941),#952,.F.);
#941 = FACE_BOUND('',#942,.F.);
#942 = EDGE_LOOP('',(#943,#949,#950,#951));
#943 = ORIENTED_EDGE('',*,*,#944,.F.);
#944 = EDGE_CURVE('',#854,#896,#945,.T.);
#945 = LINE('',#946,#947);
#946 = CARTESIAN_POINT('',(1.5,11.959522,19.65));
#947 = VECTOR('',#948,1.);
#948 = DIRECTION('',(0.,-1.,0.));
#949 = ORIENTED_EDGE('',*,*,#853,.T.);
#950 = ORIENTED_EDGE('',*,*,#929,.T.);
#951 = ORIENTED_EDGE('',*,*,#904,.F.);
#952 = PLANE('',#953);
#953 = AXIS2_PLACEMENT_3D('',#954,#955,#956);
#954 = CARTESIAN_POINT('',(1.5,11.959522,19.65));
#955 = DIRECTION('',(-1.,0.,0.));
#956 = DIRECTION('',(0.,-1.,0.));
#957 = ADVANCED_FACE('',(#958),#969,.T.);
#958 = FACE_BOUND('',#959,.T.);
#959 = EDGE_LOOP('',(#960,#961,#962,#968));
#960 = ORIENTED_EDGE('',*,*,#944,.F.);
#961 = ORIENTED_EDGE('',*,*,#861,.T.);
#962 = ORIENTED_EDGE('',*,*,#963,.F.);
#963 = EDGE_CURVE('',#888,#862,#964,.T.);
#964 = LINE('',#965,#966);
#965 = CARTESIAN_POINT('',(-1.5,4.358677,19.65));
#966 = VECTOR('',#967,1.);
#967 = DIRECTION('',(0.,1.,0.));
#968 = ORIENTED_EDGE('',*,*,#895,.T.);
#969 = PLANE('',#970);
#970 = AXIS2_PLACEMENT_3D('',#971,#972,#973);
#971 = CARTESIAN_POINT('',(0.,8.,19.65));
#972 = DIRECTION('',(0.,0.,1.));
#973 = DIRECTION('',(1.,0.,0.));
#974 = ADVANCED_FACE('',(#975),#986,.F.);
#975 = FACE_BOUND('',#976,.F.);
#976 = EDGE_LOOP('',(#977,#978,#979,#985));
#977 = ORIENTED_EDGE('',*,*,#963,.F.);
#978 = ORIENTED_EDGE('',*,*,#887,.T.);
#979 = ORIENTED_EDGE('',*,*,#980,.T.);
#980 = EDGE_CURVE('',#879,#871,#981,.T.);
#981 = LINE('',#982,#983);
#982 = CARTESIAN_POINT('',(-1.5,4.358677,13.65));
#983 = VECTOR('',#984,1.);
#984 = DIRECTION('',(0.,1.,0.));
#985 = ORIENTED_EDGE('',*,*,#870,.F.);
#986 = PLANE('',#987);
#987 = AXIS2_PLACEMENT_3D('',#988,#989,#990);
#988 = CARTESIAN_POINT('',(-1.5,4.358677,19.65));
#989 = DIRECTION('',(1.,0.,0.));
#990 = DIRECTION('',(0.,1.,0.));
#991 = ADVANCED_FACE('',(#992),#996,.T.);
#992 = FACE_BOUND('',#993,.T.);
#993 = EDGE_LOOP('',(#994,#995));
#994 = ORIENTED_EDGE('',*,*,#980,.T.);
#995 = ORIENTED_EDGE('',*,*,#878,.F.);
#996 = PLANE('',#997);
#997 = AXIS2_PLACEMENT_3D('',#998,#999,#1000);
#998 = CARTESIAN_POINT('',(-2.11206319019E-03,7.966953846099,13.65));
#999 = DIRECTION('',(0.,0.,1.));
#1000 = DIRECTION('',(1.,0.,0.));
#1001 = ( GEOMETRIC_REPRESENTATION_CONTEXT(3) 
GLOBAL_UNCERTAINTY_ASSIGNED_CONTEXT((#1005)) 
GLOBAL_UNIT_ASSIGNED_CONTEXT((#1002,#1003,#1004)) REPRESENTATION_CONTEXT
('Context #1','3D Context with UNIT and UNCERTAINTY') );
#1002 = ( LENGTH_UNIT() NAMED_UNIT(*) SI_UNIT(.MILLI.,.METRE.) );
#1003 = ( NAMED_UNIT(*) PLANE_ANGLE_UNIT() SI_UNIT($,.RADIAN.) );
#1004 = ( NAMED_UNIT(*) SI_UNIT($,.STERADIAN.) SOLID_ANGLE_UNIT() );
#1005 = UNCERTAINTY_MEASURE_WITH_UNIT(LENGTH_MEASURE(1.E-07),#1002,
  'distance_accuracy_value','confusion accuracy');
#1006 = PRODUCT_RELATED_PRODUCT_CATEGORY('part',$,(#7));
#1007 = MECHANICAL_DESIGN_GEOMETRIC_PRESENTATION_REPRESENTATION('',(
    #1008),#1001);
#1008 = STYLED_ITEM('color',(#1009),#15);
#1009 = PRESENTATION_STYLE_ASSIGNMENT((#1010,#1016));
#1010 = SURFACE_STYLE_USAGE(.BOTH.,#1011);
#1011 = SURFACE_SIDE_STYLE('',(#1012));
#1012 = SURFACE_STYLE_FILL_AREA(#1013);
#1013 = FILL_AREA_STYLE('',(#1014));
#1014 = FILL_AREA_STYLE_COLOUR('',#1015);
#1015 = COLOUR_RGB('',0.447058818107,0.474509808674,0.501960817233);
#1016 = CURVE_STYLE('',#1017,POSITIVE_LENGTH_MEASURE(0.1),#1018);
#1017 = DRAUGHTING_PRE_DEFINED_CURVE_FONT('continuous');
#1018 = COLOUR_RGB('',9.803921802644E-02,9.803921802644E-02,
  9.803921802644E-02);
ENDSEC;
END-ISO-10303-21;
